<svg width="15" height="15" viewBox="0 0 15 15" fill="none" xmlns="http://www.w3.org/2000/svg">
<path d="M7.5 12C7.5 12.525 7.5975 13.0275 7.7625 13.5H1.5C1.10218 13.5 0.720644 13.342 0.43934 13.0607C0.158035 12.7794 0 12.3978 0 12V1.5C0 0.675 0.675 0 1.5 0H12C12.3978 0 12.7794 0.158035 13.0607 0.43934C13.342 0.720644 13.5 1.10218 13.5 1.5V7.7625C13.0275 7.5975 12.525 7.5 12 7.5V1.5H1.5V12H7.5ZM8.22 6.9675L6.1575 9.6225L4.6875 7.8525L2.625 10.5H7.7625C8.0625 9.66 8.6025 8.9325 9.3 8.4075L8.22 6.9675ZM12.75 11.25V9H11.25V11.25H9V12.75H11.25V15H12.75V12.75H15V11.25H12.75Z" fill="#C8C8BE"/>
</svg>
