<svg width="22" height="22" viewBox="0 0 22 22" fill="none" xmlns="http://www.w3.org/2000/svg">
<g clip-path="url(#clip0_4_118)">
<path d="M7.66391 0.723606C5.46577 1.48616 3.5701 2.93352 2.25533 4.85308C0.940572 6.77264 0.276022 9.06323 0.359297 11.3884C0.442572 13.7136 1.26928 15.9507 2.718 17.7713C4.16671 19.5919 6.16107 20.8999 8.40813 21.5033C10.2299 21.9734 12.1385 21.994 13.97 21.5634C15.6291 21.1908 17.1631 20.3936 18.4216 19.25C19.7314 18.0234 20.6821 16.463 21.1716 14.7366C21.7034 12.8591 21.798 10.8848 21.4483 8.96501H11.2183V13.2086H17.1428C17.0244 13.8854 16.7707 14.5314 16.3968 15.1079C16.0229 15.6844 15.5366 16.1795 14.9669 16.5636C14.2435 17.0423 13.428 17.3643 12.5727 17.5089C11.7149 17.6685 10.8351 17.6685 9.97735 17.5089C9.10792 17.3294 8.28548 16.9705 7.56251 16.4553C6.40089 15.6331 5.52867 14.4649 5.07032 13.1175C4.60435 11.7449 4.60435 10.2569 5.07032 8.88423C5.39658 7.9221 5.93594 7.04609 6.64813 6.32157C7.46315 5.47723 8.49498 4.87369 9.63043 4.57717C10.7659 4.28065 11.9611 4.30261 13.0848 4.64064C13.9628 4.91001 14.7656 5.38087 15.4292 6.01564C16.0972 5.35105 16.7641 4.68475 17.4298 4.01673C17.7736 3.65751 18.1483 3.31548 18.4869 2.94767C17.4737 2.00497 16.2846 1.27138 14.9875 0.788918C12.6254 -0.0687554 10.0409 -0.0918046 7.66391 0.723606Z" fill="white"/>
<path d="M7.6639 0.723587C10.0407 -0.0923781 12.6252 -0.0699356 14.9875 0.78718C16.2848 1.27292 17.4734 2.01004 18.4851 2.95624C18.1414 3.32406 17.7787 3.66781 17.4281 4.02531C16.7612 4.69103 16.0949 5.35447 15.4292 6.01562C14.7656 5.38085 13.9628 4.90999 13.0848 4.64062C11.9614 4.30141 10.7663 4.27818 9.63052 4.57349C8.49477 4.86879 7.46231 5.47122 6.6464 6.31468C5.9342 7.0392 5.39485 7.91521 5.06858 8.87734L1.50562 6.11874C2.78094 3.58971 4.98909 1.65519 7.6639 0.723587Z" fill="#E33629"/>
<path d="M0.560319 8.85156C0.751684 7.90241 1.06963 6.98326 1.50563 6.11874L5.0686 8.88421C4.60263 10.2568 4.60263 11.7449 5.0686 13.1175C3.88152 14.0342 2.69386 14.9554 1.50563 15.8812C0.414484 13.7093 0.0817028 11.2346 0.560319 8.85156Z" fill="#F8BD00"/>
<path d="M11.2183 8.96329H21.4483C21.798 10.883 21.7034 12.8574 21.1716 14.7349C20.6821 16.4613 19.7314 18.0217 18.4216 19.2483C17.2717 18.3511 16.1167 17.4608 14.9669 16.5636C15.537 16.1791 16.0235 15.6834 16.3974 15.1063C16.7713 14.5292 17.0249 13.8826 17.1428 13.2052H11.2183C11.2166 11.7924 11.2183 10.3778 11.2183 8.96329Z" fill="#587DBD"/>
<path d="M1.50391 15.8812C2.69214 14.9646 3.87979 14.0433 5.06688 13.1175C5.52614 14.4653 6.3996 15.6336 7.5625 16.4553C8.28773 16.9681 9.11195 17.324 9.9825 17.5003C10.8403 17.6598 11.7201 17.6598 12.5778 17.5003C13.4331 17.3557 14.2487 17.0337 14.972 16.555C16.1219 17.4522 17.2769 18.3425 18.4267 19.2397C17.1684 20.3839 15.6345 21.1817 13.9752 21.5548C12.1437 21.9854 10.235 21.9648 8.41328 21.4947C6.97246 21.11 5.62663 20.4318 4.46016 19.5026C3.22563 18.5223 2.21725 17.287 1.50391 15.8812Z" fill="#319F43"/>
</g>
<defs>
<clipPath id="clip0_4_118">
<rect width="22" height="22" fill="white"/>
</clipPath>
</defs>
</svg>
