<svg width="25" height="20" viewBox="0 0 25 20" fill="none" xmlns="http://www.w3.org/2000/svg">
<path d="M2.5 20C1.8125 20 1.22375 19.755 0.733752 19.265C0.243752 18.775 -0.000831211 18.1867 2.12224e-06 17.5V2.5C2.12224e-06 1.8125 0.245002 1.22375 0.735002 0.733752C1.225 0.243752 1.81333 -0.000831211 2.5 2.12224e-06H22.5C23.1875 2.12224e-06 23.7762 0.245002 24.2662 0.735002C24.7562 1.225 25.0008 1.81334 25 2.5V17.5C25 18.1875 24.755 18.7762 24.265 19.2662C23.775 19.7562 23.1867 20.0008 22.5 20H2.5ZM12.5 11.25L2.5 5V17.5H22.5V5L12.5 11.25ZM12.5 8.75L22.5 2.5H2.5L12.5 8.75ZM2.5 5V2.5V17.5V5Z" fill="#111111"/>
</svg>
