<svg  viewBox="0 0 23 19" fill="none" xmlns="http://www.w3.org/2000/svg">
<path d="M2.3 18.7817C1.6675 18.7817 1.12585 18.5635 0.675052 18.127C0.224252 17.6904 -0.000764714 17.1663 1.95246e-06 16.5546V3.19164C1.95246e-06 2.57917 0.225402 2.05467 0.676202 1.61815C1.127 1.18163 1.66827 0.963737 2.3 0.964479H20.7C21.3325 0.964479 21.8741 1.18274 22.3249 1.61926C22.7757 2.05579 23.0008 2.57991 23 3.19164V16.5546C23 17.167 22.7746 17.6915 22.3238 18.1281C21.873 18.5646 21.3317 18.7825 20.7 18.7817H2.3ZM11.5 10.9867L2.3 5.41879V16.5546H20.7V5.41879L11.5 10.9867ZM11.5 8.75953L20.7 3.19164H2.3L11.5 8.75953ZM2.3 5.41879V3.19164V16.5546V5.41879Z" fill="#111111"/>
</svg>
