<svg width="20" height="20" viewBox="0 0 20 20" fill="none" xmlns="http://www.w3.org/2000/svg">
<path d="M18.5714 5.71429H15.7143V7.14287H18.5714V8.57144H20V7.14287C20 6.76399 19.8495 6.40062 19.5816 6.13271C19.3137 5.8648 18.9503 5.71429 18.5714 5.71429Z" fill="#C8C8BE"/>
<path d="M18.5714 10H20V14.2857H18.5714V10Z" fill="#C8C8BE"/>
<path d="M18.5714 18.5714H17.1429V20H18.5714C18.9503 20 19.3137 19.8495 19.5816 19.5816C19.8495 19.3137 20 18.9503 20 18.5714V15.7143H18.5714V18.5714Z" fill="#C8C8BE"/>
<path d="M12.8571 0H1.42857C0.639593 0 0 0.639593 0 1.42857V12.8571C0 13.6461 0.639593 14.2857 1.42857 14.2857H12.8571C13.6461 14.2857 14.2857 13.6461 14.2857 12.8571V1.42857C14.2857 0.639593 13.6461 0 12.8571 0Z" fill="#C8C8BE"/>
<path d="M11.4286 18.5714H15.7143V20H11.4286V18.5714Z" fill="#C8C8BE"/>
<path d="M7.14286 15.7143H5.71429V18.5714C5.71429 18.9503 5.8648 19.3137 6.13271 19.5816C6.40062 19.8495 6.76398 20 7.14286 20H10V18.5714H7.14286V15.7143Z" fill="#C8C8BE"/>
</svg>
