<svg width="22" height="22" viewBox="0 0 22 22" fill="none" xmlns="http://www.w3.org/2000/svg">
<path d="M20.9409 14.7905L15.7588 12.4684L15.7445 12.4618C15.4754 12.3467 15.182 12.3006 14.8906 12.3274C14.5992 12.3543 14.3192 12.4534 14.0757 12.6158C14.0471 12.6347 14.0195 12.6553 13.9932 12.6774L11.3158 14.9599C9.6196 14.136 7.86839 12.398 7.04448 10.7238L9.3303 8.00566C9.3523 7.97816 9.3732 7.95065 9.393 7.92095C9.55187 7.67818 9.64826 7.3999 9.6736 7.11088C9.69893 6.82185 9.65242 6.53104 9.5382 6.26434V6.25114L7.20948 1.06019C7.05849 0.711775 6.79887 0.421538 6.46938 0.232802C6.13988 0.0440659 5.75818 -0.0330459 5.38126 0.0129775C3.89071 0.209117 2.52253 0.941132 1.53225 2.0723C0.541971 3.20347 -0.00268505 4.65644 9.9536e-06 6.15984C9.9536e-06 14.8939 7.10608 22 15.8402 22C17.3436 22.0027 18.7965 21.458 19.9277 20.4677C21.0589 19.4775 21.7909 18.1093 21.987 16.6187C22.0331 16.2419 21.9562 15.8603 21.7676 15.5309C21.5791 15.2014 21.2891 14.9417 20.9409 14.7905ZM15.8402 20.24C12.1071 20.2359 8.52816 18.7511 5.8885 16.1115C3.24885 13.4718 1.7641 9.89287 1.76003 6.15984C1.75589 5.08566 2.14289 4.04671 2.84875 3.23701C3.55461 2.4273 4.53107 1.90221 5.59576 1.75979C5.59533 1.76418 5.59533 1.7686 5.59576 1.77299L7.90579 6.94304L5.63206 9.66447C5.60899 9.69103 5.58802 9.71935 5.56936 9.74917C5.40383 10.0032 5.30672 10.2957 5.28745 10.5982C5.26817 10.9008 5.32739 11.2032 5.45936 11.4762C6.45597 13.5145 8.50969 15.5528 10.57 16.5483C10.845 16.6791 11.1492 16.7362 11.4528 16.7143C11.7565 16.6923 12.0493 16.5919 12.3025 16.4229C12.3308 16.4039 12.3579 16.3833 12.3839 16.3613L15.0581 14.0799L20.2281 16.3954H20.2402C20.0995 17.4616 19.5752 18.4401 18.7654 19.1477C17.9555 19.8553 16.9156 20.2436 15.8402 20.24Z" fill="#111111"/>
</svg>
