<svg  viewBox="0 0 24 18" xmlns="http://www.w3.org/2000/svg">
<path d="M13.284 7.80181C14.0129 6.79367 14.4049 5.58501 14.4049 4.34528C14.4049 3.10554 14.0129 1.89688 13.284 0.888739C13.9662 0.427814 14.774 0.183376 15.6 0.187929C16.7139 0.187929 17.7822 0.625934 18.5699 1.40559C19.3575 2.18524 19.8 3.24268 19.8 4.34528C19.8 5.44787 19.3575 6.50531 18.5699 7.28496C17.7822 8.06462 16.7139 8.50262 15.6 8.50262C14.774 8.50717 13.9662 8.26274 13.284 7.80181ZM4.2 4.34528C4.2 3.52303 4.44633 2.71925 4.90783 2.03558C5.36933 1.35191 6.02528 0.819048 6.79273 0.504388C7.56018 0.189728 8.40466 0.107399 9.21938 0.267811C10.0341 0.428223 10.7825 0.824172 11.3698 1.40559C11.9572 1.987 12.3572 2.72777 12.5193 3.53422C12.6814 4.34066 12.5982 5.17657 12.2803 5.93622C11.9624 6.69588 11.4241 7.34517 10.7334 7.80198C10.0427 8.2588 9.23068 8.50262 8.4 8.50262C7.28609 8.50262 6.2178 8.06462 5.43015 7.28496C4.6425 6.50531 4.2 5.44787 4.2 4.34528ZM6.6 4.34528C6.6 4.69767 6.70557 5.04214 6.90336 5.33514C7.10114 5.62815 7.38226 5.85652 7.71117 5.99137C8.04008 6.12622 8.402 6.16151 8.75116 6.09276C9.10033 6.02401 9.42106 5.85432 9.67279 5.60514C9.92453 5.35596 10.096 5.03849 10.1654 4.69287C10.2349 4.34725 10.1992 3.98901 10.063 3.66344C9.92675 3.33787 9.69603 3.05961 9.40003 2.86383C9.10402 2.66805 8.75601 2.56356 8.4 2.56356C7.92261 2.56356 7.46477 2.75127 7.12721 3.08541C6.78964 3.41955 6.6 3.87273 6.6 4.34528ZM16.8 15.6295V18.0051H0V15.6295C0 15.6295 0 10.8782 8.4 10.8782C16.8 10.8782 16.8 15.6295 16.8 15.6295ZM14.4 15.6295C14.232 14.703 12.804 13.2539 8.4 13.2539C3.996 13.2539 2.484 14.8099 2.4 15.6295M16.74 10.8782C17.4755 11.4445 18.0768 12.1633 18.5018 12.9841C18.9268 13.8049 19.1651 14.7078 19.2 15.6295V18.0051H24V15.6295C24 15.6295 24 11.3177 16.728 10.8782H16.74Z" fill="#111111"/>
</svg>
