<svg viewBox="0 0 35 28" fill="none" xmlns="http://www.w3.org/2000/svg">
<path d="M33 7.14286C33 4.30229 27.6026 2 20.9445 2C14.2864 2 8.88892 4.30229 8.88892 7.14286M33 7.14286V14C33 15.7486 30.9575 17.2914 27.8334 18.2206C25.8804 18.8034 23.5054 19.1429 20.9445 19.1429C18.3835 19.1429 16.0086 18.8017 14.0556 18.2206C10.9332 17.2914 8.88892 15.7486 8.88892 14V7.14286M33 7.14286C33 8.89143 30.9575 10.4343 27.8334 11.3634C25.8804 11.9463 23.5054 12.2857 20.9445 12.2857C18.3835 12.2857 16.0086 11.9446 14.0556 11.3634C10.9332 10.4343 8.88892 8.89143 8.88892 7.14286" stroke="#111111" stroke-width="3" stroke-linecap="round" stroke-linejoin="round"/>
<path d="M2 13.9998V20.857C2 22.6056 4.04428 24.1484 7.16667 25.0776C9.11967 25.6604 11.4946 25.9998 14.0556 25.9998C16.6165 25.9998 18.9914 25.6587 20.9444 25.0776C24.0668 24.1484 26.1111 22.6056 26.1111 20.857V19.1427M2 13.9998C2 11.9478 4.81583 10.177 8.88889 9.35242M2 13.9998C2 15.7484 4.04428 17.2913 7.16667 18.2204C9.11967 18.8033 11.4946 19.1427 14.0556 19.1427C15.2525 19.1427 16.4081 19.069 17.5 18.9301" stroke="#111111" stroke-width="3" stroke-linecap="round" stroke-linejoin="round"/>
</svg>
