<svg width="26" height="22" viewBox="0 0 26 22" fill="none" xmlns="http://www.w3.org/2000/svg">
<path fill-rule="evenodd" clip-rule="evenodd" d="M25.9742 2.23449C26.0306 1.89535 25.9942 1.54743 25.8687 1.22697C25.7432 0.906518 25.5333 0.625256 25.2608 0.412492C24.9883 0.199728 24.6631 0.0632485 24.3192 0.0172726C23.9754 -0.0287033 23.6253 0.0175066 23.3056 0.151089L1.18619 9.37648C-0.355699 10.0197 -0.434604 12.2287 1.18619 12.8949C2.7911 13.5579 4.41941 14.164 6.06799 14.7118C7.57884 15.2064 9.2268 15.6638 10.5475 15.7933C10.9084 16.2212 11.3624 16.6338 11.8255 17.0105C12.5331 17.5871 13.3842 18.1803 14.2638 18.7492C16.0256 19.8896 17.9801 20.98 19.297 21.6898C20.8712 22.5355 22.7559 21.5617 23.0379 19.8614L25.9742 2.23449ZM3.6659 11.1229L23.2293 2.96355L20.4896 19.4155C19.1974 18.7198 17.336 17.6781 15.6776 16.6043C14.9133 16.1182 14.1754 15.5926 13.467 15.0296C13.2776 14.8764 13.0938 14.7166 12.916 14.5504L18.0396 9.47642C18.2824 9.23617 18.4188 8.91024 18.4189 8.57035C18.419 8.23046 18.2828 7.90444 18.0403 7.66402C17.7977 7.42359 17.4687 7.28846 17.1256 7.28834C16.7824 7.28822 16.4533 7.42312 16.2106 7.66338L10.6005 13.2204C9.65108 13.1 8.32908 12.7514 6.87774 12.2774C5.79725 11.9208 4.72667 11.5354 3.66719 11.1216L3.6659 11.1229Z" fill="#111111"/>
</svg>
