<svg width="17" height="19" viewBox="0 0 17 19" fill="none" xmlns="http://www.w3.org/2000/svg">
<path d="M15.1111 17.1H1.88889V6.65H15.1111M12.2778 0V1.9H4.72222V0H2.83333V1.9H1.88889C0.840556 1.9 0 2.7455 0 3.8V17.1C0 17.6039 0.199007 18.0872 0.553243 18.4435C0.907478 18.7998 1.38792 19 1.88889 19H15.1111C15.6121 19 16.0925 18.7998 16.4468 18.4435C16.801 18.0872 17 17.6039 17 17.1V3.8C17 3.29609 16.801 2.81282 16.4468 2.4565C16.0925 2.10018 15.6121 1.9 15.1111 1.9H14.1667V0M13.2222 10.45H8.5V15.2H13.2222V10.45Z" fill="#111111"/>
</svg>
