<svg viewBox="0 0 27 32"  xmlns="http://www.w3.org/2000/svg">
<path d="M13.44 32C15.288 32 16.8 30.5231 16.8 28.7179H10.08C10.08 30.5231 11.592 32 13.44 32ZM23.52 22.1538V13.9487C23.52 8.91077 20.7816 4.69333 15.96 3.57744V2.46154C15.96 1.09949 14.8344 0 13.44 0C12.0456 0 10.92 1.09949 10.92 2.46154V3.57744C6.1152 4.69333 3.36 8.89436 3.36 13.9487V22.1538L0 25.4359V27.0769H26.88V25.4359L23.52 22.1538ZM20.16 23.7949H6.72V13.9487C6.72 9.87897 9.2568 6.5641 13.44 6.5641C17.6232 6.5641 20.16 9.87897 20.16 13.9487V23.7949Z"/>
</svg>
