<svg  viewBox="0 0 20 21" fill="none" xmlns="http://www.w3.org/2000/svg">
<path d="M14.275 17.4963L17.75 14.0813L16.7 13.0419L14.275 15.3928L13.3 14.4277L12.25 15.4918L14.275 17.4963ZM3 6.36047H15V4.38078H3V6.36047ZM15 20.2183C13.6167 20.2183 12.4373 19.7356 11.462 18.7702C10.4867 17.8048 9.99933 16.6377 10 15.2691C10 13.8998 10.4877 12.7325 11.463 11.767C12.4383 10.8016 13.6173 10.3192 15 10.3199C16.3833 10.3199 17.5627 10.8026 18.538 11.768C19.5133 12.7334 20.0007 13.9005 20 15.2691C20 16.6384 19.5123 17.8057 18.537 18.7712C17.5617 19.7366 16.3827 20.219 15 20.2183ZM0 19.2285V0.421387H18V9.00831C17.6833 8.85984 17.3583 8.73611 17.025 8.63712C16.6917 8.53814 16.35 8.4639 16 8.41441V2.40108H2V16.3084H8.075C8.15833 16.8199 8.28767 17.3065 8.463 17.7685C8.63833 18.2304 8.86733 18.6676 9.15 19.08L9 19.2285L7.5 17.7437L6 19.2285L4.5 17.7437L3 19.2285L1.5 17.7437L0 19.2285ZM3 14.2793H8.075C8.125 13.9328 8.2 13.5946 8.3 13.2647C8.4 12.9347 8.525 12.613 8.675 12.2996H3V14.2793ZM3 10.3199H10.1C10.7333 9.70946 11.471 9.22674 12.313 8.87171C13.155 8.51669 14.0507 8.33951 15 8.34017H3V10.3199Z" fill="#111111"/>
</svg>
