<svg width="21" height="19" viewBox="0 0 21 19" fill="none" xmlns="http://www.w3.org/2000/svg">
<path d="M18.9 2.55762H15.5715L13.65 0.566833H7.35L5.4285 2.55762H2.1C1.54305 2.55762 1.0089 2.76736 0.615076 3.1407C0.221249 3.51405 0 4.02041 0 4.5484V16.4931C0 17.0211 0.221249 17.5275 0.615076 17.9008C1.0089 18.2741 1.54305 18.4839 2.1 18.4839H18.9C19.457 18.4839 19.9911 18.2741 20.3849 17.9008C20.7787 17.5275 21 17.0211 21 16.4931V4.5484C21 4.02041 20.7787 3.51405 20.3849 3.1407C19.9911 2.76736 19.457 2.55762 18.9 2.55762ZM18.9 16.4931H2.1V4.5484H6.3525L8.274 2.55762H12.726L14.6475 4.5484H18.9V16.4931ZM10.5 5.54379C9.10761 5.54379 7.77225 6.06815 6.78769 7.00151C5.80312 7.93487 5.25 9.20078 5.25 10.5208C5.25 11.8407 5.80312 13.1066 6.78769 14.04C7.77225 14.9734 9.10761 15.4977 10.5 15.4977C11.8924 15.4977 13.2277 14.9734 14.2123 14.04C15.1969 13.1066 15.75 11.8407 15.75 10.5208C15.75 9.20078 15.1969 7.93487 14.2123 7.00151C13.2277 6.06815 11.8924 5.54379 10.5 5.54379ZM10.5 13.5069C9.66457 13.5069 8.86335 13.1923 8.27261 12.6323C7.68187 12.0723 7.35 11.3127 7.35 10.5208C7.35 9.72877 7.68187 8.96922 8.27261 8.4092C8.86335 7.84919 9.66457 7.53457 10.5 7.53457C11.3354 7.53457 12.1366 7.84919 12.7274 8.4092C13.3181 8.96922 13.65 9.72877 13.65 10.5208C13.65 11.3127 13.3181 12.0723 12.7274 12.6323C12.1366 13.1923 11.3354 13.5069 10.5 13.5069Z" fill="white"/>
</svg>
