<svg  viewBox="0 0 22 19" fill="none" xmlns="http://www.w3.org/2000/svg">
<path d="M5.99885 0.896779C5.95095 0.850642 5.89403 0.814035 5.83135 0.789057C5.76868 0.764078 5.70148 0.751221 5.63362 0.751221C5.56575 0.751221 5.49856 0.764078 5.43588 0.789057C5.37321 0.814035 5.31628 0.850642 5.26838 0.896779L2.53213 3.50774L1.55674 2.59549C1.50883 2.54935 1.45191 2.51275 1.38924 2.48777C1.32656 2.46279 1.25937 2.44993 1.1915 2.44993C1.12364 2.44993 1.05644 2.46279 0.993767 2.48777C0.931092 2.51275 0.87417 2.54935 0.826267 2.59549L0.151657 3.2438C0.103587 3.28977 0.0654458 3.3444 0.0394211 3.40456C0.0133964 3.46471 0 3.52921 0 3.59434C0 3.65948 0.0133964 3.72397 0.0394211 3.78413C0.0654458 3.84428 0.103587 3.89891 0.151657 3.94489L2.19654 5.89971C2.29861 5.99283 2.43406 6.04476 2.57488 6.04476C2.71571 6.04476 2.85115 5.99283 2.95322 5.89971L3.62311 5.25552L6.72545 2.27835C6.82211 2.1855 6.87673 2.05981 6.87746 1.92856C6.87818 1.79731 6.82495 1.67108 6.72932 1.57725L5.99885 0.896779ZM5.99885 7.46191C5.95095 7.41577 5.89403 7.37917 5.83135 7.35419C5.76868 7.32921 5.70148 7.31635 5.63362 7.31635C5.56575 7.31635 5.49856 7.32921 5.43588 7.35419C5.37321 7.37917 5.31628 7.41577 5.26838 7.46191L2.53213 10.0898L1.55674 9.17835C1.50883 9.13222 1.45191 9.09561 1.38924 9.07063C1.32656 9.04565 1.25937 9.03279 1.1915 9.03279C1.12364 9.03279 1.05644 9.04565 0.993767 9.07063C0.931092 9.09561 0.87417 9.13222 0.826267 9.17835L0.151657 9.82542C0.103587 9.8714 0.0654458 9.92603 0.0394211 9.98619C0.0133964 10.0463 0 10.1108 0 10.176C0 10.2411 0.0133964 10.3056 0.0394211 10.3658C0.0654458 10.4259 0.103587 10.4805 0.151657 10.5265L2.19139 12.4855C2.29338 12.5786 2.42876 12.6305 2.56951 12.6305C2.71027 12.6305 2.84564 12.5786 2.94764 12.4855L3.62225 11.8384L6.72459 8.85997C6.82088 8.76778 6.87532 8.6428 6.87604 8.51225C6.87677 8.38171 6.82372 8.25618 6.72846 8.163L5.99885 7.46191ZM2.74998 14.6094C1.61174 14.6094 0.662126 15.496 0.662126 16.5889C0.662126 17.6818 1.6126 18.5685 2.74998 18.5685C3.29699 18.5685 3.82159 18.3599 4.20839 17.9887C4.59518 17.6174 4.81248 17.1139 4.81248 16.5889C4.81248 16.0639 4.59518 15.5604 4.20839 15.1892C3.82159 14.8179 3.29699 14.6094 2.74998 14.6094ZM21.3125 15.2692H8.93749C8.75515 15.2692 8.58028 15.3387 8.45135 15.4625C8.32242 15.5862 8.24999 15.7541 8.24999 15.9291V17.2488C8.24999 17.4238 8.32242 17.5916 8.45135 17.7154C8.58028 17.8391 8.75515 17.9086 8.93749 17.9086H21.3125C21.4948 17.9086 21.6697 17.8391 21.7986 17.7154C21.9276 17.5916 22 17.4238 22 17.2488V15.9291C22 15.7541 21.9276 15.5862 21.7986 15.4625C21.6697 15.3387 21.4948 15.2692 21.3125 15.2692ZM21.3125 2.07214H8.93749C8.75515 2.07214 8.58028 2.14166 8.45135 2.26541C8.32242 2.38916 8.24999 2.55699 8.24999 2.732V4.0517C8.24999 4.22671 8.32242 4.39454 8.45135 4.51829C8.58028 4.64204 8.75515 4.71156 8.93749 4.71156H21.3125C21.4948 4.71156 21.6697 4.64204 21.7986 4.51829C21.9276 4.39454 22 4.22671 22 4.0517V2.732C22 2.55699 21.9276 2.38916 21.7986 2.26541C21.6697 2.14166 21.4948 2.07214 21.3125 2.07214ZM21.3125 8.67068H8.93749C8.75515 8.67068 8.58028 8.7402 8.45135 8.86395C8.32242 8.98769 8.24999 9.15553 8.24999 9.33053V10.6502C8.24999 10.8252 8.32242 10.9931 8.45135 11.1168C8.58028 11.2406 8.75515 11.3101 8.93749 11.3101H21.3125C21.4948 11.3101 21.6697 11.2406 21.7986 11.1168C21.9276 10.9931 22 10.8252 22 10.6502V9.33053C22 9.15553 21.9276 8.98769 21.7986 8.86395C21.6697 8.7402 21.4948 8.67068 21.3125 8.67068Z" fill="#111111"/>
</svg>
