<svg width="65" height="65" viewBox="0 0 65 65" fill="none" xmlns="http://www.w3.org/2000/svg">
<path d="M32.5 0.0645142C36.8098 0.0645142 40.943 1.76867 43.9905 4.8021C47.038 7.83552 48.75 11.9497 48.75 16.2396C48.75 20.5295 47.038 24.6437 43.9905 27.6772C40.943 30.7106 36.8098 32.4147 32.5 32.4147C28.1902 32.4147 24.057 30.7106 21.0095 27.6772C17.962 24.6437 16.25 20.5295 16.25 16.2396C16.25 11.9497 17.962 7.83552 21.0095 4.8021C24.057 1.76867 28.1902 0.0645142 32.5 0.0645142ZM32.5 8.15207C30.3451 8.15207 28.2785 9.00415 26.7548 10.5209C25.231 12.0376 24.375 14.0947 24.375 16.2396C24.375 18.3846 25.231 20.4417 26.7548 21.9584C28.2785 23.4751 30.3451 24.3272 32.5 24.3272C34.6549 24.3272 36.7215 23.4751 38.2452 21.9584C39.769 20.4417 40.625 18.3846 40.625 16.2396C40.625 14.0947 39.769 12.0376 38.2452 10.5209C36.7215 9.00415 34.6549 8.15207 32.5 8.15207ZM32.5 36.4585C43.3469 36.4585 65 41.8368 65 52.6336V64.765H0V52.6336C0 41.8368 21.6531 36.4585 32.5 36.4585ZM32.5 44.1417C20.4344 44.1417 7.71875 50.0456 7.71875 52.6336V57.0818H57.2812V52.6336C57.2812 50.0456 44.5656 44.1417 32.5 44.1417Z" fill="#C8C8BE"/>
</svg>
